<?xml version="1.0" standalone="no"?>
<!DOCTYPE svg PUBLIC "-//W3C//DTD SVG 20010904//EN"
 "http://www.w3.org/TR/2001/REC-SVG-20010904/DTD/svg10.dtd">
<svg version="1.0" xmlns="http://www.w3.org/2000/svg"
 width="980.000000pt" height="982.000000pt" viewBox="0 0 980.000000 982.000000"
 preserveAspectRatio="xMidYMid meet">
<metadata>
Created by potrace 1.15, written by Peter Selinger 2001-2017
</metadata>
<g transform="translate(0.000000,982.000000) scale(0.100000,-0.100000)"
fill="#000000" stroke="none">
<path d="M9625 9813 c-383 -24 -908 -100 -1242 -179 -207 -49 -717 -203 -772
-233 -9 -6 20 -44 105 -137 138 -150 1643 -1664 1655 -1664 13 0 135 387 188
595 129 513 222 1088 238 1468 l6 157 -64 -2 c-35 -1 -86 -3 -114 -5z"/>
<path d="M7090 9177 c-122 -68 -150 -87 -150 -101 0 -6 481 -492 1068 -1079
l1069 -1069 25 44 c14 23 51 93 81 154 l55 111 -701 700 c-979 977 -1305 1293
-1331 1293 -11 0 -64 -24 -116 -53z"/>
<path d="M6514 8839 c-78 -42 -278 -170 -439 -282 -1218 -847 -2258 -2004
-3063 -3406 -177 -309 -508 -975 -564 -1135 l-23 -66 455 -456 c459 -460 988
-976 1047 -1021 l32 -25 98 43 c208 91 776 380 1133 577 620 341 1399 910
2006 1465 612 560 1132 1173 1573 1855 72 112 131 207 131 212 0 14 -1975
1960 -2246 2213 -33 31 -65 57 -71 57 -6 0 -37 -14 -69 -31z m51 -1710 c196
-34 372 -157 503 -352 139 -208 162 -480 61 -722 -84 -202 -270 -375 -474
-442 -65 -21 -106 -27 -218 -31 -170 -6 -234 6 -352 63 -300 146 -481 442
-462 755 8 120 27 191 82 305 109 226 338 401 565 435 62 9 206 4 295 -11z"/>
<path d="M6263 6771 c-68 -23 -122 -61 -188 -132 -120 -131 -137 -316 -43
-491 78 -147 266 -236 439 -209 145 24 270 117 332 249 30 63 32 74 32 177 0
99 -3 116 -28 169 -77 166 -223 256 -411 256 -51 -1 -100 -7 -133 -19z"/>
<path d="M2670 6655 c-407 -78 -941 -356 -1335 -696 -104 -90 -342 -329 -457
-459 -190 -217 -457 -572 -626 -836 -113 -175 -256 -424 -248 -431 3 -3 45 19
93 49 339 213 692 389 933 466 164 52 201 57 400 56 155 -1 198 -5 265 -22
148 -40 320 -141 503 -295 24 -21 47 -37 51 -37 4 0 51 93 106 208 258 543
435 849 910 1575 139 213 204 322 198 328 -14 14 -179 55 -320 80 -154 27
-373 33 -473 14z"/>
<path d="M6450 3439 c-442 -324 -1086 -709 -1723 -1030 l-298 -150 23 -29
c164 -201 229 -303 278 -439 49 -135 63 -212 63 -356 1 -114 -3 -145 -32 -258
-82 -327 -264 -704 -550 -1147 -14 -22 -8 -20 64 19 487 266 1073 699 1441
1066 288 287 464 522 630 839 223 428 283 707 255 1186 -11 172 -42 360 -61
360 -3 0 -44 -28 -90 -61z"/>
<path d="M1996 3248 c-18 -29 -49 -85 -69 -124 l-36 -72 514 -511 c282 -281
521 -511 531 -511 18 0 197 92 235 121 l24 18 -400 402 c-430 430 -739 729
-755 729 -6 0 -25 -24 -44 -52z"/>
<path d="M939 1903 l-420 -417 83 -83 83 -83 278 277 c354 353 547 558 547
582 0 19 -122 141 -141 141 -6 0 -200 -188 -430 -417z"/>
<path d="M1022 1317 l-682 -682 83 -83 82 -82 683 683 682 682 -83 83 -82 82
-683 -683z"/>
<path d="M1754 1358 c-362 -357 -704 -715 -704 -738 0 -20 70 -96 113 -125
l27 -17 63 55 c94 83 812 793 891 881 l69 77 -74 75 c-40 41 -79 74 -85 74 -7
0 -142 -127 -300 -282z"/>
<path d="M278 1243 c-101 -104 -101 -102 -24 -178 38 -39 73 -65 85 -65 21 0
171 134 171 153 0 11 -148 157 -159 157 -4 0 -36 -30 -73 -67z"/>
<path d="M87 381 l-82 -80 83 -83 82 -83 81 82 82 81 -22 30 c-11 16 -48 53
-81 82 l-60 52 -83 -81z"/>
<path d="M826 428 c-46 -38 -116 -125 -116 -144 0 -25 118 -134 144 -134 17 0
49 23 102 75 l78 76 -70 70 c-92 94 -93 94 -138 57z"/>
</g>
</svg>
